<?xml version="1.0" standalone="no"?>
<!DOCTYPE svg PUBLIC "-//W3C//DTD SVG 20010904//EN"
 "http://www.w3.org/TR/2001/REC-SVG-20010904/DTD/svg10.dtd">
<svg version="1.0" xmlns="http://www.w3.org/2000/svg"
 width="1920.000000pt" height="648.000000pt" viewBox="0 0 1920.000000 648.000000"
 preserveAspectRatio="xMidYMid meet">

<g transform="translate(0.000000,648.000000) scale(0.100000,-0.100000)"
fill="#000000" stroke="none">
<path d="M2300 5608 c0 -74 -28 -235 -55 -316 -51 -149 -125 -270 -231 -375
-78 -75 -140 -119 -249 -174 -157 -79 -307 -118 -537 -139 l-68 -6 0 -521 0
-522 217 7 c213 6 251 10 401 42 174 38 370 132 482 234 32 28 61 52 64 52 3
0 6 -457 6 -1015 l0 -1015 -710 0 -710 0 0 -525 0 -525 423 0 c562 0 700 13
916 82 194 62 376 165 546 309 119 100 256 262 322 379 15 28 31 50 35 50 4 0
9 -183 10 -407 l3 -408 648 -3 647 -2 0 525 0 525 -604 0 -604 0 14 41 c27 76
62 224 73 303 8 53 11 607 11 1755 l0 1678 -352 6 c-194 4 -431 7 -525 7
l-173 0 0 -42z"/>
<path d="M13977 5643 c-4 -3 -7 -242 -7 -530 l0 -523 1655 0 1655 0 -2 -282
-3 -283 -57 -7 c-31 -4 -101 -12 -155 -17 -91 -10 -270 -29 -603 -67 -74 -8
-238 -26 -365 -39 -126 -14 -329 -36 -450 -50 -121 -13 -407 -45 -635 -70
-453 -49 -558 -70 -728 -143 -386 -168 -684 -492 -814 -887 -82 -248 -97 -528
-42 -775 79 -354 281 -661 574 -876 180 -132 381 -216 608 -255 109 -18 172
-19 1393 -19 l1279 0 0 490 0 490 525 0 526 0 -4 1213 -3 1212 -26 120 c-156
718 -742 1235 -1466 1295 -131 11 -2845 14 -2855 3z m3303 -3223 l0 -620
-1417 2 -1418 3 -3 451 c-2 354 1 453 10 461 11 9 341 47 1168 138 124 14 322
36 440 50 118 14 323 37 455 51 132 15 346 39 475 54 129 15 247 28 263 29
l27 1 0 -620z"/>
<path d="M6120 5110 l0 -530 -535 0 -535 0 2 -1882 3 -1883 530 0 530 0 3
1883 2 1882 1213 -2 1212 -3 3 -1877 2 -1878 530 0 530 0 -3 1707 -3 1708 -26
110 c-15 61 -36 137 -47 169 -12 33 -21 61 -21 63 0 2 537 2 1193 1 l1192 -3
3 -1877 2 -1878 530 0 530 0 0 1653 c0 1137 -3 1680 -11 1741 -14 114 -68 312
-116 424 -196 458 -586 803 -1064 941 -213 62 -197 61 -1296 61 l-1003 0 -2
-477 -3 -478 -34 65 c-214 414 -602 726 -1043 839 -62 16 -148 34 -191 40 -52
7 -414 11 -1078 11 l-999 0 0 -530z"/>
</g>
</svg>
